<svg width="186" height="31" viewBox="0 0 186 31" fill="none" xmlns="http://www.w3.org/2000/svg">
<g filter="url(#filter0_i_1_2)">
<path d="M0.447993 23.776C0.149326 23.776 -7.27177e-06 23.6693 -7.27177e-06 23.456C-7.27177e-06 23.2213 0.213326 23.072 0.639993 23.008L1.27999 22.912C1.74933 22.848 2.06933 22.7413 2.23999 22.592C2.43199 22.4213 2.57066 22.112 2.65599 21.664L7.00799 2.848C7.11466 2.4 7.11466 2.10133 7.00799 1.952C6.90133 1.80267 6.63466 1.68533 6.20799 1.6L5.56799 1.472C5.29066 1.408 5.15199 1.29067 5.15199 1.12C5.15199 0.864 5.34399 0.736 5.72799 0.736H11.424C11.7227 0.736 11.872 0.842667 11.872 1.056C11.872 1.29067 11.6587 1.44 11.232 1.504L10.592 1.6C10.1227 1.664 9.80266 1.78133 9.63199 1.952C9.46133 2.10133 9.32266 2.4 9.21599 2.848L4.86399 21.664C4.77866 22.112 4.77866 22.4107 4.86399 22.56C4.97066 22.7093 5.23733 22.8267 5.66399 22.912L6.30399 23.04C6.58133 23.104 6.71999 23.2213 6.71999 23.392C6.71999 23.648 6.52799 23.776 6.14399 23.776H0.447993ZM12.16 23.776C11.8613 23.776 11.744 23.6373 11.808 23.36L14.848 10.592C14.9547 10.1227 14.9653 9.76 14.88 9.504C14.816 9.22667 14.624 9.088 14.304 9.088C13.92 9.088 13.4933 9.376 13.024 9.952C12.576 10.5067 12.064 11.5733 11.488 13.152C11.4027 13.4293 11.2533 13.568 11.04 13.568C10.72 13.568 10.6347 13.376 10.784 12.992C11.2533 11.52 11.744 10.368 12.256 9.536C12.7893 8.704 13.3227 8.11733 13.856 7.776C14.3893 7.43467 14.88 7.264 15.328 7.264C16.032 7.264 16.5333 7.53067 16.832 8.064C17.1307 8.576 17.1413 9.42933 16.864 10.624L16.512 12.128C16.4907 12.2773 16.5227 12.3627 16.608 12.384C16.6933 12.4053 16.768 12.352 16.832 12.224C17.6427 10.368 18.3787 9.07733 19.04 8.352C19.7013 7.62667 20.4587 7.264 21.312 7.264C21.888 7.264 22.3147 7.424 22.592 7.744C22.8907 8.04267 23.04 8.45867 23.04 8.992C23.04 9.52533 22.912 9.952 22.656 10.272C22.4 10.592 22.0693 10.752 21.664 10.752C21.3227 10.752 21.0773 10.6667 20.928 10.496C20.7787 10.3253 20.6613 10.1333 20.576 9.92C20.512 9.68533 20.4373 9.48267 20.352 9.312C20.2667 9.14133 20.128 9.056 19.936 9.056C19.616 9.056 19.2 9.46133 18.688 10.272C18.176 11.0827 17.6213 12.1813 17.024 13.568C16.448 14.9333 15.8827 16.4693 15.328 18.176C14.7947 19.8827 14.3253 21.632 13.92 23.424C13.856 23.6587 13.7067 23.776 13.472 23.776H12.16ZM24.9012 23.776C24.6026 23.776 24.4852 23.6373 24.5492 23.36L27.5892 10.592C27.6959 10.1227 27.7066 9.76 27.6212 9.504C27.5572 9.22667 27.3652 9.088 27.0452 9.088C26.6612 9.088 26.2346 9.376 25.7652 9.952C25.3172 10.5067 24.8052 11.5733 24.2292 13.152C24.1439 13.4293 23.9946 13.568 23.7812 13.568C23.4612 13.568 23.3759 13.376 23.5252 12.992C23.9946 11.52 24.4852 10.368 24.9972 9.536C25.5306 8.704 26.0639 8.11733 26.5972 7.776C27.1306 7.43467 27.6212 7.264 28.0692 7.264C28.7732 7.264 29.2746 7.53067 29.5732 8.064C29.8719 8.576 29.8826 9.42933 29.6052 10.624L29.2532 12.128C29.2319 12.2773 29.2639 12.3627 29.3492 12.384C29.4346 12.4053 29.5092 12.352 29.5732 12.224C30.3839 10.368 31.1199 9.07733 31.7812 8.352C32.4426 7.62667 33.1999 7.264 34.0532 7.264C34.6292 7.264 35.0559 7.424 35.3332 7.744C35.6319 8.04267 35.7812 8.45867 35.7812 8.992C35.7812 9.52533 35.6532 9.952 35.3972 10.272C35.1412 10.592 34.8106 10.752 34.4052 10.752C34.0639 10.752 33.8186 10.6667 33.6692 10.496C33.5199 10.3253 33.4026 10.1333 33.3172 9.92C33.2532 9.68533 33.1786 9.48267 33.0932 9.312C33.0079 9.14133 32.8692 9.056 32.6772 9.056C32.3572 9.056 31.9412 9.46133 31.4292 10.272C30.9172 11.0827 30.3626 12.1813 29.7652 13.568C29.1892 14.9333 28.6239 16.4693 28.0692 18.176C27.5359 19.8827 27.0666 21.632 26.6612 23.424C26.5972 23.6587 26.4479 23.776 26.2132 23.776H24.9012ZM39.16 24.064C38.0293 24.064 37.1227 23.6267 36.44 22.752C35.7573 21.856 35.416 20.5973 35.416 18.976C35.416 17.568 35.6613 16.1707 36.152 14.784C36.664 13.3973 37.3253 12.1387 38.136 11.008C38.9467 9.87733 39.832 8.97067 40.792 8.288C41.7733 7.60533 42.7227 7.264 43.64 7.264C44.6427 7.264 45.3573 7.50933 45.784 8C46.232 8.46933 46.456 9.10933 46.456 9.92C46.456 10.88 46.1147 11.84 45.432 12.8C44.7707 13.7387 43.832 14.5813 42.616 15.328C41.4213 16.0747 40.0133 16.6293 38.392 16.992C37.9227 17.0987 37.6773 17.3653 37.656 17.792C37.6347 17.9413 37.624 18.1013 37.624 18.272C37.624 18.4213 37.624 18.5707 37.624 18.72C37.624 19.936 37.8267 20.8533 38.232 21.472C38.6587 22.0907 39.2347 22.4 39.96 22.4C40.7707 22.4 41.5493 22.0267 42.296 21.28C43.064 20.5333 43.704 19.4773 44.216 18.112C44.28 17.92 44.408 17.824 44.6 17.824C44.728 17.824 44.8027 17.8773 44.824 17.984C44.8667 18.0907 44.8667 18.2187 44.824 18.368C44.1413 20.2453 43.3093 21.664 42.328 22.624C41.368 23.584 40.312 24.064 39.16 24.064ZM37.976 15.776C37.9333 15.9253 37.9547 16.0533 38.04 16.16C38.1467 16.2453 38.2747 16.2667 38.424 16.224C39.7467 15.8613 40.856 15.3173 41.752 14.592C42.648 13.8453 43.32 13.0133 43.768 12.096C44.2373 11.1787 44.472 10.2827 44.472 9.408C44.472 8.512 44.12 8.064 43.416 8.064C42.7973 8.064 42.1253 8.42667 41.4 9.152C40.6747 9.87733 40.0027 10.8267 39.384 12C38.7653 13.1733 38.296 14.432 37.976 15.776ZM50.093 30.688C48.4077 30.688 47.1277 30.3787 46.253 29.76C45.3783 29.1413 44.941 28.4053 44.941 27.552C44.941 26.8053 45.2397 26.0693 45.837 25.344C46.413 24.64 47.4903 23.8293 49.069 22.912C49.3037 22.784 49.4317 22.6453 49.453 22.496C49.4957 22.3253 49.3997 22.1653 49.165 22.016C48.5677 21.632 48.205 21.184 48.077 20.672C47.9703 20.16 48.109 19.7973 48.493 19.584L50.925 18.176C51.1383 18.0693 51.245 17.9413 51.245 17.792C51.2663 17.6213 51.1597 17.472 50.925 17.344C50.349 17.0027 49.9117 16.5227 49.613 15.904C49.3357 15.264 49.197 14.5707 49.197 13.824C49.197 12.672 49.4743 11.6053 50.029 10.624C50.605 9.62133 51.3623 8.81067 52.301 8.192C53.261 7.57333 54.3277 7.264 55.501 7.264C55.9917 7.264 56.4077 7.328 56.749 7.456C57.005 7.54133 57.197 7.456 57.325 7.2C57.6877 6.41067 58.1463 5.792 58.701 5.344C59.277 4.87467 59.8743 4.64 60.493 4.64C60.941 4.64 61.2823 4.75733 61.517 4.992C61.773 5.22667 61.901 5.54667 61.901 5.952C61.901 6.35733 61.7837 6.688 61.549 6.944C61.3143 7.2 61.0157 7.328 60.653 7.328C60.3757 7.328 60.1623 7.27467 60.013 7.168C59.885 7.06133 59.7677 6.95467 59.661 6.848C59.5543 6.74133 59.3837 6.688 59.149 6.688C58.6797 6.688 58.3063 6.95467 58.029 7.488C57.9437 7.68 57.9223 7.86133 57.965 8.032C58.0077 8.18133 58.093 8.34133 58.221 8.512C58.7757 9.23733 59.053 10.1547 59.053 11.264C59.053 12.2667 58.829 13.2267 58.381 14.144C57.9543 15.04 57.357 15.808 56.589 16.448C55.8423 17.0667 54.9783 17.4827 53.997 17.696C53.613 17.7813 53.261 17.888 52.941 18.016C52.6423 18.1227 52.2583 18.3253 51.789 18.624L50.509 19.392C50.189 19.584 50.1037 19.8293 50.253 20.128C50.4023 20.4053 50.8183 20.672 51.501 20.928L54.253 21.952C55.4477 22.3787 56.269 22.9013 56.717 23.52C57.1863 24.1387 57.421 24.864 57.421 25.696C57.421 26.72 57.0797 27.6053 56.397 28.352C55.7357 29.0987 54.8503 29.6747 53.741 30.08C52.6317 30.4853 51.4157 30.688 50.093 30.688ZM51.341 14.4C51.341 15.3813 51.4797 16.096 51.757 16.544C52.0557 16.9707 52.4717 17.184 53.005 17.184C53.6877 17.184 54.317 16.8747 54.893 16.256C55.4903 15.616 55.9703 14.8053 56.333 13.824C56.6957 12.8213 56.877 11.7867 56.877 10.72C56.877 9.65333 56.7383 8.928 56.461 8.544C56.1837 8.13867 55.7677 7.936 55.213 7.936C54.5517 7.936 53.9223 8.256 53.325 8.896C52.7277 9.51467 52.2477 10.3147 51.885 11.296C51.5223 12.2773 51.341 13.312 51.341 14.4ZM50.445 29.888C51.277 29.888 52.0557 29.7493 52.781 29.472C53.5063 29.1947 54.093 28.8 54.541 28.288C55.0103 27.776 55.245 27.168 55.245 26.464C55.245 25.76 55.0637 25.1733 54.701 24.704C54.3597 24.256 53.677 23.84 52.653 23.456L52.045 23.232C51.661 23.0827 51.277 23.0293 50.893 23.072C50.509 23.1147 50.1463 23.2213 49.805 23.392C48.653 24.032 47.8743 24.6293 47.469 25.184C47.0637 25.7387 46.861 26.3467 46.861 27.008C46.861 27.7973 47.149 28.4693 47.725 29.024C48.301 29.6 49.2077 29.888 50.445 29.888ZM64.6007 24.064C63.8114 24.064 63.2674 23.712 62.9687 23.008C62.6914 22.2827 62.7127 21.3333 63.0327 20.16L65.5607 10.88C65.7314 10.2613 65.7741 9.78133 65.6887 9.44C65.6034 9.09867 65.4114 8.928 65.1127 8.928C64.6221 8.928 64.1207 9.30133 63.6087 10.048C63.1181 10.7947 62.6914 11.8293 62.3287 13.152C62.2647 13.3867 62.1261 13.504 61.9127 13.504C61.6141 13.504 61.5181 13.2907 61.6247 12.864C62.1154 11.072 62.7554 9.696 63.5447 8.736C64.3554 7.75467 65.2407 7.264 66.2007 7.264C66.9687 7.264 67.4807 7.616 67.7367 8.32C67.9927 9.024 67.9501 9.984 67.6087 11.2L65.0487 20.48C64.6434 21.952 64.7821 22.688 65.4647 22.688C65.8914 22.688 66.3821 22.4 66.9367 21.824C67.4914 21.248 68.0674 20.4587 68.6647 19.456C69.2834 18.4533 69.8914 17.312 70.4887 16.032C71.0861 14.752 71.6301 13.408 72.1207 12C72.6114 10.592 73.0167 9.19467 73.3367 7.808C73.4007 7.57333 73.5501 7.456 73.7847 7.456H75.0647C75.3634 7.456 75.4807 7.59467 75.4167 7.872L72.4087 20.736C72.1741 21.7387 72.3554 22.24 72.9527 22.24C73.8487 22.24 74.7874 20.8853 75.7687 18.176C75.8541 17.8987 76.0034 17.76 76.2167 17.76C76.3447 17.76 76.4301 17.8133 76.4727 17.92C76.5367 18.0267 76.5367 18.1653 76.4727 18.336C75.8967 20.1493 75.2141 21.5573 74.4247 22.56C73.6354 23.5627 72.8034 24.064 71.9287 24.064C70.3927 24.064 69.8807 22.944 70.3927 20.704L71.2247 17.152C71.2674 17.0027 71.2354 16.9173 71.1287 16.896C71.0434 16.8747 70.9687 16.928 70.9047 17.056C69.6674 19.616 68.5261 21.4293 67.4807 22.496C66.4354 23.5413 65.4754 24.064 64.6007 24.064ZM80.4987 24.096C79.7947 24.096 79.2934 23.84 78.9947 23.328C78.6961 22.7947 78.6854 21.9307 78.9627 20.736L83.0267 3.296C83.1334 2.912 83.1334 2.64533 83.0267 2.496C82.9414 2.34667 82.7494 2.26133 82.4507 2.24L81.4907 2.144C81.1707 2.12267 81.0321 1.984 81.0747 1.728C81.1174 1.536 81.2667 1.41867 81.5227 1.376C82.2907 1.248 82.9734 1.09867 83.5707 0.927999C84.1681 0.735999 84.6481 0.490666 85.0107 0.191999C85.1814 0.0639998 85.3414 0 85.4907 0C85.7467 0 85.8427 0.16 85.7787 0.48L81.0427 20.768C80.9361 21.2373 80.9147 21.6107 80.9787 21.888C81.0641 22.144 81.2667 22.272 81.5867 22.272C81.9707 22.272 82.3867 21.9947 82.8347 21.44C83.3041 20.864 83.8267 19.7867 84.4027 18.208C84.4881 17.9307 84.6374 17.792 84.8507 17.792C85.1707 17.792 85.2561 17.984 85.1067 18.368C84.6587 19.8187 84.1574 20.9707 83.6027 21.824C83.0694 22.656 82.5361 23.2427 82.0027 23.584C81.4694 23.9253 80.9681 24.096 80.4987 24.096ZM89.6262 24.064C88.8582 24.064 88.2609 23.7333 87.8342 23.072C87.4076 22.4107 87.1942 21.44 87.1942 20.16C87.1942 18.944 87.3649 17.728 87.7062 16.512C88.0476 15.2747 88.5169 14.1013 89.1142 12.992C89.7116 11.8827 90.3836 10.9013 91.1302 10.048C91.8982 9.19467 92.6982 8.52267 93.5302 8.032C94.3836 7.52 95.2262 7.264 96.0582 7.264C96.4636 7.264 96.8476 7.34933 97.2102 7.52C97.5729 7.66933 97.8716 7.91467 98.1062 8.256C98.2342 8.448 98.3622 8.544 98.4902 8.544C98.6182 8.544 98.7462 8.448 98.8742 8.256C99.1089 7.91467 99.3009 7.70133 99.4502 7.616C99.5996 7.50933 99.7382 7.456 99.8662 7.456C100.144 7.456 100.25 7.60533 100.186 7.904L97.3382 20.16C97.0182 21.5467 97.2316 22.24 97.9782 22.24C98.4689 22.24 98.9062 21.9093 99.2902 21.248C99.6956 20.5867 100.101 19.5627 100.506 18.176C100.57 17.9413 100.709 17.824 100.922 17.824C101.072 17.824 101.168 17.888 101.21 18.016C101.253 18.144 101.253 18.2933 101.21 18.464C100.805 20.4693 100.261 21.9093 99.5782 22.784C98.8956 23.6373 98.0742 24.064 97.1142 24.064C96.2822 24.064 95.6849 23.712 95.3222 23.008C94.9809 22.304 94.9489 21.344 95.2262 20.128L95.6422 18.368C95.6849 18.2187 95.6529 18.1333 95.5462 18.112C95.4609 18.0907 95.3862 18.144 95.3222 18.272C94.1489 20.4267 93.1036 21.9307 92.1862 22.784C91.2902 23.6373 90.4369 24.064 89.6262 24.064ZM90.4262 22.432C90.9382 22.432 91.5036 22.1227 92.1222 21.504C92.7409 20.8853 93.3489 20.0853 93.9462 19.104C94.5649 18.1227 95.1302 17.0667 95.6422 15.936C96.1542 14.8053 96.5596 13.7173 96.8582 12.672C97.1782 11.6267 97.3382 10.7413 97.3382 10.016C97.3382 8.71467 96.8796 8.064 95.9622 8.064C95.4076 8.064 94.8209 8.32 94.2022 8.832C93.5836 9.32267 92.9862 9.99467 92.4102 10.848C91.8556 11.7013 91.3436 12.672 90.8742 13.76C90.4262 14.8267 90.0636 15.9467 89.7862 17.12C89.5089 18.272 89.3702 19.4027 89.3702 20.512C89.3702 21.2587 89.4556 21.7707 89.6262 22.048C89.8182 22.304 90.0849 22.432 90.4262 22.432ZM104.942 23.776C104.644 23.776 104.526 23.6373 104.59 23.36L107.63 10.592C107.737 10.1227 107.748 9.76 107.662 9.504C107.598 9.22667 107.406 9.088 107.086 9.088C106.702 9.088 106.276 9.376 105.806 9.952C105.358 10.5067 104.846 11.5733 104.27 13.152C104.185 13.4293 104.036 13.568 103.822 13.568C103.502 13.568 103.417 13.376 103.566 12.992C104.036 11.52 104.526 10.368 105.038 9.536C105.572 8.704 106.105 8.11733 106.638 7.776C107.172 7.43467 107.662 7.264 108.11 7.264C108.814 7.264 109.316 7.53067 109.614 8.064C109.913 8.576 109.924 9.42933 109.646 10.624L109.294 12.128C109.273 12.2773 109.305 12.3627 109.39 12.384C109.476 12.4053 109.55 12.352 109.614 12.224C110.425 10.368 111.161 9.07733 111.822 8.352C112.484 7.62667 113.241 7.264 114.094 7.264C114.67 7.264 115.097 7.424 115.374 7.744C115.673 8.04267 115.822 8.45867 115.822 8.992C115.822 9.52533 115.694 9.952 115.438 10.272C115.182 10.592 114.852 10.752 114.446 10.752C114.105 10.752 113.86 10.6667 113.71 10.496C113.561 10.3253 113.444 10.1333 113.358 9.92C113.294 9.68533 113.22 9.48267 113.134 9.312C113.049 9.14133 112.91 9.056 112.718 9.056C112.398 9.056 111.982 9.46133 111.47 10.272C110.958 11.0827 110.404 12.1813 109.806 13.568C109.23 14.9333 108.665 16.4693 108.11 18.176C107.577 19.8827 107.108 21.632 106.702 23.424C106.638 23.6587 106.489 23.776 106.254 23.776H104.942ZM121.329 23.776C121.031 23.776 120.881 23.6693 120.881 23.456C120.881 23.2213 121.095 23.072 121.521 23.008L122.161 22.912C122.631 22.848 122.951 22.7413 123.121 22.592C123.313 22.4213 123.452 22.112 123.537 21.664L127.889 2.848C127.975 2.48533 127.985 2.208 127.921 2.016C127.857 1.824 127.58 1.68533 127.089 1.6L126.449 1.472C126.172 1.408 126.033 1.29067 126.033 1.12C126.033 0.864 126.225 0.736 126.609 0.736H132.849C134.62 0.736 135.975 1.216 136.913 2.176C137.852 3.136 138.321 4.34133 138.321 5.792C138.321 7.136 137.969 8.384 137.265 9.536C136.583 10.6667 135.623 11.584 134.385 12.288C133.169 12.992 131.74 13.344 130.097 13.344H128.209C127.868 13.344 127.644 13.5253 127.537 13.888L125.745 21.536C125.639 22.0053 125.66 22.3253 125.809 22.496C125.98 22.6667 126.332 22.784 126.865 22.848L128.401 23.04C128.593 23.0613 128.689 23.168 128.689 23.36C128.689 23.6373 128.497 23.776 128.113 23.776H121.329ZM128.273 10.784C128.145 11.3387 128.199 11.776 128.433 12.096C128.689 12.3947 129.212 12.544 130.001 12.544C131.068 12.544 131.975 12.32 132.721 11.872C133.489 11.424 134.108 10.848 134.577 10.144C135.068 9.41867 135.42 8.65067 135.633 7.84C135.868 7.008 135.985 6.21867 135.985 5.472C135.985 4.29867 135.676 3.34933 135.057 2.624C134.439 1.89867 133.532 1.536 132.337 1.536C131.036 1.536 130.289 1.96267 130.097 2.816L128.273 10.784ZM141.34 24.064C140.209 24.064 139.303 23.6267 138.62 22.752C137.937 21.856 137.596 20.5973 137.596 18.976C137.596 17.568 137.841 16.1707 138.332 14.784C138.844 13.3973 139.505 12.1387 140.316 11.008C141.127 9.87733 142.012 8.97067 142.972 8.288C143.953 7.60533 144.903 7.264 145.82 7.264C146.823 7.264 147.537 7.50933 147.964 8C148.412 8.46933 148.636 9.10933 148.636 9.92C148.636 10.88 148.295 11.84 147.612 12.8C146.951 13.7387 146.012 14.5813 144.796 15.328C143.601 16.0747 142.193 16.6293 140.572 16.992C140.103 17.0987 139.857 17.3653 139.836 17.792C139.815 17.9413 139.804 18.1013 139.804 18.272C139.804 18.4213 139.804 18.5707 139.804 18.72C139.804 19.936 140.007 20.8533 140.412 21.472C140.839 22.0907 141.415 22.4 142.14 22.4C142.951 22.4 143.729 22.0267 144.476 21.28C145.244 20.5333 145.884 19.4773 146.396 18.112C146.46 17.92 146.588 17.824 146.78 17.824C146.908 17.824 146.983 17.8773 147.004 17.984C147.047 18.0907 147.047 18.2187 147.004 18.368C146.321 20.2453 145.489 21.664 144.508 22.624C143.548 23.584 142.492 24.064 141.34 24.064ZM140.156 15.776C140.113 15.9253 140.135 16.0533 140.22 16.16C140.327 16.2453 140.455 16.2667 140.604 16.224C141.927 15.8613 143.036 15.3173 143.932 14.592C144.828 13.8453 145.5 13.0133 145.948 12.096C146.417 11.1787 146.652 10.2827 146.652 9.408C146.652 8.512 146.3 8.064 145.596 8.064C144.977 8.064 144.305 8.42667 143.58 9.152C142.855 9.87733 142.183 10.8267 141.564 12C140.945 13.1733 140.476 14.432 140.156 15.776ZM152.145 24.064C151.377 24.064 150.78 23.7333 150.353 23.072C149.926 22.4107 149.713 21.44 149.713 20.16C149.713 18.944 149.884 17.728 150.225 16.512C150.566 15.2747 151.036 14.1013 151.633 12.992C152.23 11.8827 152.902 10.9013 153.649 10.048C154.417 9.19467 155.217 8.52267 156.049 8.032C156.902 7.52 157.745 7.264 158.577 7.264C158.982 7.264 159.366 7.34933 159.729 7.52C160.092 7.66933 160.39 7.91467 160.625 8.256C160.753 8.448 160.881 8.544 161.009 8.544C161.137 8.544 161.265 8.448 161.393 8.256C161.628 7.91467 161.82 7.70133 161.969 7.616C162.118 7.50933 162.257 7.456 162.385 7.456C162.662 7.456 162.769 7.60533 162.705 7.904L159.857 20.16C159.537 21.5467 159.75 22.24 160.497 22.24C160.988 22.24 161.425 21.9093 161.809 21.248C162.214 20.5867 162.62 19.5627 163.025 18.176C163.089 17.9413 163.228 17.824 163.441 17.824C163.59 17.824 163.686 17.888 163.729 18.016C163.772 18.144 163.772 18.2933 163.729 18.464C163.324 20.4693 162.78 21.9093 162.097 22.784C161.414 23.6373 160.593 24.064 159.633 24.064C158.801 24.064 158.204 23.712 157.841 23.008C157.5 22.304 157.468 21.344 157.745 20.128L158.161 18.368C158.204 18.2187 158.172 18.1333 158.065 18.112C157.98 18.0907 157.905 18.144 157.841 18.272C156.668 20.4267 155.622 21.9307 154.705 22.784C153.809 23.6373 152.956 24.064 152.145 24.064ZM152.945 22.432C153.457 22.432 154.022 22.1227 154.641 21.504C155.26 20.8853 155.868 20.0853 156.465 19.104C157.084 18.1227 157.649 17.0667 158.161 15.936C158.673 14.8053 159.078 13.7173 159.377 12.672C159.697 11.6267 159.857 10.7413 159.857 10.016C159.857 8.71467 159.398 8.064 158.481 8.064C157.926 8.064 157.34 8.32 156.721 8.832C156.102 9.32267 155.505 9.99467 154.929 10.848C154.374 11.7013 153.862 12.672 153.393 13.76C152.945 14.8267 152.582 15.9467 152.305 17.12C152.028 18.272 151.889 19.4027 151.889 20.512C151.889 21.2587 151.974 21.7707 152.145 22.048C152.337 22.304 152.604 22.432 152.945 22.432ZM167.461 23.776C167.163 23.776 167.045 23.6373 167.109 23.36L170.149 10.592C170.256 10.1227 170.267 9.76 170.181 9.504C170.117 9.22667 169.925 9.088 169.605 9.088C169.221 9.088 168.795 9.376 168.325 9.952C167.877 10.5067 167.365 11.5733 166.789 13.152C166.704 13.4293 166.555 13.568 166.341 13.568C166.021 13.568 165.936 13.376 166.085 12.992C166.555 11.52 167.045 10.368 167.557 9.536C168.091 8.704 168.624 8.11733 169.157 7.776C169.691 7.43467 170.181 7.264 170.629 7.264C171.333 7.264 171.835 7.53067 172.133 8.064C172.432 8.576 172.443 9.42933 172.165 10.624L171.813 12.128C171.792 12.2773 171.824 12.3627 171.909 12.384C171.995 12.4053 172.069 12.352 172.133 12.224C172.944 10.368 173.68 9.07733 174.341 8.352C175.003 7.62667 175.76 7.264 176.613 7.264C177.189 7.264 177.616 7.424 177.893 7.744C178.192 8.04267 178.341 8.45867 178.341 8.992C178.341 9.52533 178.213 9.952 177.957 10.272C177.701 10.592 177.371 10.752 176.965 10.752C176.624 10.752 176.379 10.6667 176.229 10.496C176.08 10.3253 175.963 10.1333 175.877 9.92C175.813 9.68533 175.739 9.48267 175.653 9.312C175.568 9.14133 175.429 9.056 175.237 9.056C174.917 9.056 174.501 9.46133 173.989 10.272C173.477 11.0827 172.923 12.1813 172.325 13.568C171.749 14.9333 171.184 16.4693 170.629 18.176C170.096 19.8827 169.627 21.632 169.221 23.424C169.157 23.6587 169.008 23.776 168.773 23.776H167.461ZM180.522 24.096C179.818 24.096 179.317 23.84 179.018 23.328C178.72 22.7947 178.709 21.9307 178.986 20.736L183.05 3.296C183.157 2.912 183.157 2.64533 183.05 2.496C182.965 2.34667 182.773 2.26133 182.474 2.24L181.514 2.144C181.194 2.12267 181.056 1.984 181.098 1.728C181.141 1.536 181.29 1.41867 181.546 1.376C182.314 1.248 182.997 1.09867 183.594 0.927999C184.192 0.735999 184.672 0.490666 185.034 0.191999C185.205 0.0639998 185.365 0 185.514 0C185.77 0 185.866 0.16 185.802 0.48L181.066 20.768C180.96 21.2373 180.938 21.6107 181.002 21.888C181.088 22.144 181.29 22.272 181.61 22.272C181.994 22.272 182.41 21.9947 182.858 21.44C183.328 20.864 183.85 19.7867 184.426 18.208C184.512 17.9307 184.661 17.792 184.874 17.792C185.194 17.792 185.28 17.984 185.13 18.368C184.682 19.8187 184.181 20.9707 183.626 21.824C183.093 22.656 182.56 23.2427 182.026 23.584C181.493 23.9253 180.992 24.096 180.522 24.096Z" fill="#1C1917"/>
</g>
<defs>
<filter id="filter0_i_1_2" x="0" y="0" width="185.898" height="34.688" filterUnits="userSpaceOnUse" color-interpolation-filters="sRGB">
<feFlood flood-opacity="0" result="BackgroundImageFix"/>
<feBlend mode="normal" in="SourceGraphic" in2="BackgroundImageFix" result="shape"/>
<feColorMatrix in="SourceAlpha" type="matrix" values="0 0 0 0 0 0 0 0 0 0 0 0 0 0 0 0 0 0 127 0" result="hardAlpha"/>
<feOffset dy="4"/>
<feGaussianBlur stdDeviation="2"/>
<feComposite in2="hardAlpha" operator="arithmetic" k2="-1" k3="1"/>
<feColorMatrix type="matrix" values="0 0 0 0 0 0 0 0 0 0 0 0 0 0 0 0 0 0 0.25 0"/>
<feBlend mode="normal" in2="shape" result="effect1_innerShadow_1_2"/>
</filter>
</defs>
</svg>
